<mxfile host="app.diagrams.net" modified="2024-06-28T16:08:09.830Z" agent="Mozilla/5.0 (Windows NT 10.0; Win64; x64) AppleWebKit/537.36 (KHTML, like Gecko) Chrome/126.0.0.0 Safari/537.36" etag="PupCZVWpICf4doRkVIiz" version="24.6.4" type="device">
  <diagram id="C5RBs43oDa-KdzZeNtuy" name="Page-1">
    <mxGraphModel dx="880" dy="472" grid="1" gridSize="10" guides="1" tooltips="1" connect="1" arrows="1" fold="1" page="1" pageScale="1" pageWidth="827" pageHeight="1169" math="0" shadow="0">
      <root>
        <mxCell id="WIyWlLk6GJQsqaUBKTNV-0" />
        <mxCell id="WIyWlLk6GJQsqaUBKTNV-1" parent="WIyWlLk6GJQsqaUBKTNV-0" />
        <mxCell id="1Q4UoqMeE8mlW1o4UgTY-15" style="edgeStyle=orthogonalEdgeStyle;rounded=0;orthogonalLoop=1;jettySize=auto;html=1;exitX=0.5;exitY=1;exitDx=0;exitDy=0;entryX=0.5;entryY=0;entryDx=0;entryDy=0;" edge="1" parent="WIyWlLk6GJQsqaUBKTNV-1" source="1Q4UoqMeE8mlW1o4UgTY-16" target="1Q4UoqMeE8mlW1o4UgTY-22">
          <mxGeometry relative="1" as="geometry" />
        </mxCell>
        <mxCell id="1Q4UoqMeE8mlW1o4UgTY-16" value="Input Data" style="shape=parallelogram;perimeter=parallelogramPerimeter;whiteSpace=wrap;html=1;fixedSize=1;" vertex="1" parent="WIyWlLk6GJQsqaUBKTNV-1">
          <mxGeometry x="235" y="150" width="120" height="60" as="geometry" />
        </mxCell>
        <mxCell id="1Q4UoqMeE8mlW1o4UgTY-17" style="edgeStyle=orthogonalEdgeStyle;rounded=0;orthogonalLoop=1;jettySize=auto;html=1;exitX=0.5;exitY=1;exitDx=0;exitDy=0;entryX=0.5;entryY=0;entryDx=0;entryDy=0;" edge="1" parent="WIyWlLk6GJQsqaUBKTNV-1" source="1Q4UoqMeE8mlW1o4UgTY-18" target="1Q4UoqMeE8mlW1o4UgTY-16">
          <mxGeometry relative="1" as="geometry" />
        </mxCell>
        <mxCell id="1Q4UoqMeE8mlW1o4UgTY-18" value="Start" style="ellipse;whiteSpace=wrap;html=1;aspect=fixed;" vertex="1" parent="WIyWlLk6GJQsqaUBKTNV-1">
          <mxGeometry x="270" y="70" width="50" height="50" as="geometry" />
        </mxCell>
        <mxCell id="1Q4UoqMeE8mlW1o4UgTY-19" style="edgeStyle=orthogonalEdgeStyle;rounded=0;orthogonalLoop=1;jettySize=auto;html=1;exitX=0.5;exitY=1;exitDx=0;exitDy=0;entryX=0.5;entryY=0;entryDx=0;entryDy=0;" edge="1" parent="WIyWlLk6GJQsqaUBKTNV-1" source="1Q4UoqMeE8mlW1o4UgTY-22" target="1Q4UoqMeE8mlW1o4UgTY-25">
          <mxGeometry relative="1" as="geometry" />
        </mxCell>
        <mxCell id="1Q4UoqMeE8mlW1o4UgTY-20" value="No" style="edgeLabel;html=1;align=center;verticalAlign=middle;resizable=0;points=[];" vertex="1" connectable="0" parent="1Q4UoqMeE8mlW1o4UgTY-19">
          <mxGeometry y="-1" relative="1" as="geometry">
            <mxPoint as="offset" />
          </mxGeometry>
        </mxCell>
        <mxCell id="1Q4UoqMeE8mlW1o4UgTY-21" style="edgeStyle=orthogonalEdgeStyle;rounded=0;orthogonalLoop=1;jettySize=auto;html=1;exitX=1;exitY=0.5;exitDx=0;exitDy=0;entryX=0;entryY=0.5;entryDx=0;entryDy=0;" edge="1" parent="WIyWlLk6GJQsqaUBKTNV-1" source="1Q4UoqMeE8mlW1o4UgTY-22" target="1Q4UoqMeE8mlW1o4UgTY-27">
          <mxGeometry relative="1" as="geometry" />
        </mxCell>
        <mxCell id="1Q4UoqMeE8mlW1o4UgTY-22" value="Nan" style="rhombus;whiteSpace=wrap;html=1;" vertex="1" parent="WIyWlLk6GJQsqaUBKTNV-1">
          <mxGeometry x="255" y="250" width="80" height="80" as="geometry" />
        </mxCell>
        <mxCell id="1Q4UoqMeE8mlW1o4UgTY-23" value="End" style="ellipse;whiteSpace=wrap;html=1;aspect=fixed;" vertex="1" parent="WIyWlLk6GJQsqaUBKTNV-1">
          <mxGeometry x="270" y="610" width="50" height="50" as="geometry" />
        </mxCell>
        <mxCell id="1Q4UoqMeE8mlW1o4UgTY-24" style="edgeStyle=orthogonalEdgeStyle;rounded=0;orthogonalLoop=1;jettySize=auto;html=1;exitX=0.5;exitY=1;exitDx=0;exitDy=0;entryX=0.5;entryY=0;entryDx=0;entryDy=0;" edge="1" parent="WIyWlLk6GJQsqaUBKTNV-1" source="1Q4UoqMeE8mlW1o4UgTY-25" target="1Q4UoqMeE8mlW1o4UgTY-29">
          <mxGeometry relative="1" as="geometry" />
        </mxCell>
        <mxCell id="1Q4UoqMeE8mlW1o4UgTY-25" value="Call Function KurangiSaldo() from class BankAccount" style="rounded=0;whiteSpace=wrap;html=1;" vertex="1" parent="WIyWlLk6GJQsqaUBKTNV-1">
          <mxGeometry x="235" y="390" width="120" height="60" as="geometry" />
        </mxCell>
        <mxCell id="1Q4UoqMeE8mlW1o4UgTY-26" style="edgeStyle=orthogonalEdgeStyle;rounded=0;orthogonalLoop=1;jettySize=auto;html=1;exitX=0.5;exitY=1;exitDx=0;exitDy=0;entryX=1;entryY=0.5;entryDx=0;entryDy=0;" edge="1" parent="WIyWlLk6GJQsqaUBKTNV-1" source="1Q4UoqMeE8mlW1o4UgTY-27" target="1Q4UoqMeE8mlW1o4UgTY-23">
          <mxGeometry relative="1" as="geometry" />
        </mxCell>
        <mxCell id="1Q4UoqMeE8mlW1o4UgTY-27" value="Error Withdraw&lt;br&gt;Is Nan" style="shape=parallelogram;perimeter=parallelogramPerimeter;whiteSpace=wrap;html=1;fixedSize=1;" vertex="1" parent="WIyWlLk6GJQsqaUBKTNV-1">
          <mxGeometry x="420" y="260" width="120" height="60" as="geometry" />
        </mxCell>
        <mxCell id="1Q4UoqMeE8mlW1o4UgTY-28" style="edgeStyle=orthogonalEdgeStyle;rounded=0;orthogonalLoop=1;jettySize=auto;html=1;exitX=0.5;exitY=1;exitDx=0;exitDy=0;entryX=0.5;entryY=0;entryDx=0;entryDy=0;" edge="1" parent="WIyWlLk6GJQsqaUBKTNV-1" source="1Q4UoqMeE8mlW1o4UgTY-29" target="1Q4UoqMeE8mlW1o4UgTY-23">
          <mxGeometry relative="1" as="geometry" />
        </mxCell>
        <mxCell id="1Q4UoqMeE8mlW1o4UgTY-29" value="Output&amp;nbsp; Message" style="shape=parallelogram;perimeter=parallelogramPerimeter;whiteSpace=wrap;html=1;fixedSize=1;" vertex="1" parent="WIyWlLk6GJQsqaUBKTNV-1">
          <mxGeometry x="235" y="500" width="120" height="60" as="geometry" />
        </mxCell>
      </root>
    </mxGraphModel>
  </diagram>
</mxfile>
